<svg width="201" height="48" viewBox="0 0 201 48" fill="none" xmlns="http://www.w3.org/2000/svg">
<path d="M0 20.7098L9.05265 0H9.27079L18.3234 20.7098H13.7426L7.96197 6.14527L10.825 4.19611L3.89918 20.7098H0ZM6.18961 13.5088H12.2156L13.6062 16.8115H4.9626L6.18961 13.5088Z" fill="white"/>
<path d="M21.2666 0.785078L27.129 15.1331L24.8386 14.6728L30.1556 0.785078H34.8456L25.6838 21.6303L16.5221 0.785078H21.2666Z" fill="white"/>
<path d="M38.3174 0.785078H42.2711V20.7098H38.3174V0.785078Z" fill="white"/>
<path d="M45.1876 20.7098L54.2403 0H54.4584L63.5111 20.7098H58.9302L53.1496 6.14527L56.0126 4.19611L49.0868 20.7098H45.1876ZM51.3773 13.5088H57.4033L58.7939 16.8115H50.1502L51.3773 13.5088Z" fill="white"/>
<path d="M63.4489 0.785078H76.9733V4.57511H72.0925V20.7098H68.1388V4.57511H63.4489V0.785078Z" fill="white"/>
<path d="M78.8697 10.7745C78.8697 9.40289 79.1332 8.10345 79.6604 6.8762C80.1876 5.64895 80.9147 4.56609 81.8418 3.6276C82.787 2.67107 83.8777 1.92209 85.1138 1.38065C86.3499 0.839222 87.6769 0.568506 89.0948 0.568506C90.4945 0.568506 91.8124 0.839222 93.0485 1.38065C94.2846 1.92209 95.3753 2.67107 96.3206 3.6276C97.284 4.56609 98.0293 5.64895 98.5564 6.8762C99.1018 8.10345 99.3745 9.40289 99.3745 10.7745C99.3745 12.1823 99.1018 13.4997 98.5564 14.727C98.0293 15.9542 97.284 17.0371 96.3206 17.9756C95.3753 18.896 94.2846 19.6179 93.0485 20.1413C91.8124 20.6647 90.4945 20.9264 89.0948 20.9264C87.6769 20.9264 86.3499 20.6647 85.1138 20.1413C83.8777 19.6179 82.787 18.896 81.8418 17.9756C80.9147 17.0371 80.1876 15.9542 79.6604 14.727C79.1332 13.4997 78.8697 12.1823 78.8697 10.7745ZM82.9597 10.7745C82.9597 11.6589 83.1142 12.4891 83.4232 13.2651C83.7505 14.0231 84.1958 14.6999 84.7593 15.2955C85.341 15.873 86.0045 16.3242 86.7498 16.6491C87.5133 16.9739 88.3404 17.1364 89.2311 17.1364C90.0855 17.1364 90.8762 16.9739 91.6034 16.6491C92.3487 16.3242 92.994 15.873 93.5393 15.2955C94.0847 14.6999 94.5118 14.0231 94.8209 13.2651C95.1299 12.4891 95.2844 11.6589 95.2844 10.7745C95.2844 9.87214 95.1208 9.03291 94.7936 8.25686C94.4846 7.4808 94.0483 6.80401 93.4848 6.22648C92.9394 5.63091 92.2941 5.17069 91.5488 4.84583C90.8035 4.52097 89.9946 4.35854 89.1221 4.35854C88.2495 4.35854 87.4406 4.52097 86.6953 4.84583C85.95 5.17069 85.2956 5.63091 84.7321 6.22648C84.1685 6.80401 83.7323 7.4808 83.4232 8.25686C83.1142 9.03291 82.9597 9.87214 82.9597 10.7745Z" fill="white"/>
<path d="M109.397 0.785078C110.651 0.785078 111.769 0.947508 112.751 1.27237C113.732 1.57918 114.55 2.03038 115.205 2.62595C115.877 3.20348 116.386 3.90734 116.732 4.73754C117.077 5.54969 117.25 6.47013 117.25 7.49885C117.25 8.311 117.122 9.12315 116.868 9.9353C116.632 10.7475 116.232 11.4874 115.668 12.1552C115.123 12.8229 114.396 13.3644 113.487 13.7795C112.578 14.1765 111.451 14.3751 110.106 14.3751H107.27V20.7098H103.316V0.785078H109.397ZM110.078 10.585C110.678 10.585 111.178 10.4858 111.578 10.2872C111.978 10.0887 112.287 9.83604 112.505 9.52923C112.742 9.22241 112.905 8.90658 112.996 8.58172C113.105 8.23881 113.16 7.92298 113.16 7.63421C113.16 7.41764 113.123 7.14692 113.051 6.82206C112.996 6.47915 112.869 6.13625 112.669 5.79334C112.469 5.45043 112.16 5.16166 111.742 4.92704C111.342 4.69242 110.797 4.57511 110.106 4.57511H107.27V10.585H110.078ZM113.787 13.0215L118.749 20.7098H114.141L109.07 13.1298L113.787 13.0215Z" fill="white"/>
<path d="M49.2442 27.8567C50.8984 27.8567 52.2982 28.1365 53.4434 28.696C54.5886 29.2374 55.4611 30.0135 56.061 31.0241C56.6609 32.0168 56.9608 33.1989 56.9608 34.5705C56.9608 35.3827 56.8336 36.2038 56.5791 37.034C56.3428 37.8462 55.9519 38.5861 55.4066 39.2539C54.8794 39.9217 54.1614 40.4631 53.2525 40.8782C52.3618 41.2753 51.262 41.4738 49.9532 41.4738H47.1174V47.7815H43.1637V27.8567H49.2442ZM49.9259 37.6567C50.5258 37.6567 51.0257 37.5574 51.4256 37.3589C51.8255 37.1423 52.1346 36.8806 52.3527 36.5738C52.589 36.249 52.7526 35.9151 52.8435 35.5722C52.9526 35.2293 53.0071 34.9315 53.0071 34.6788C53.0071 34.4803 52.9707 34.2186 52.898 33.8937C52.8435 33.5508 52.7162 33.2079 52.5163 32.865C52.3163 32.5221 52.0073 32.2333 51.5892 31.9987C51.1893 31.7641 50.644 31.6468 49.9532 31.6468H47.1174V37.6567H49.9259Z" fill="#FF004D"/>
<path d="M66.579 27.8567C67.8333 27.8567 68.9513 28.0192 69.9329 28.344C70.9145 28.6508 71.7325 29.102 72.3869 29.6976C73.0595 30.2751 73.5685 30.979 73.9139 31.8092C74.2593 32.6214 74.4319 33.5418 74.4319 34.5705C74.4319 35.3827 74.3047 36.1948 74.0502 37.007C73.8139 37.8191 73.414 38.5591 72.8505 39.2268C72.3051 39.8946 71.578 40.436 70.6691 40.8511C69.7602 41.2482 68.6332 41.4467 67.288 41.4467H64.4522V47.7815H60.4985V27.8567H66.579ZM67.2607 37.6567C67.8606 37.6567 68.3605 37.5574 68.7604 37.3589C69.1603 37.1604 69.4694 36.9077 69.6875 36.6009C69.9238 36.2941 70.0874 35.9782 70.1783 35.6534C70.2874 35.3105 70.3419 34.9946 70.3419 34.7059C70.3419 34.4893 70.3055 34.2186 70.2328 33.8937C70.1783 33.5508 70.051 33.2079 69.8511 32.865C69.6511 32.5221 69.3421 32.2333 68.924 31.9987C68.5241 31.7641 67.9788 31.6468 67.288 31.6468H64.4522V37.6567H67.2607ZM70.969 40.0931L75.9316 47.7815H71.3235L66.2518 40.2014L70.969 40.0931Z" fill="#FF004D"/>
<path d="M79.1913 27.8567H92.8794V31.6468H83.145V35.897H91.7614V39.6871H83.145V43.9915H93.2611V47.7815H79.1913V27.8567Z" fill="#FF004D"/>
<path d="M97.3516 47.7815V27.8567H103.35C105.368 27.8567 107.086 28.1545 108.504 28.7501C109.922 29.3457 111.058 30.1398 111.912 31.1324C112.785 32.125 113.421 33.235 113.821 34.4622C114.221 35.6895 114.421 36.9258 114.421 38.171C114.421 39.651 114.148 40.9865 113.603 42.1777C113.076 43.3508 112.348 44.3614 111.421 45.2097C110.494 46.0399 109.422 46.6806 108.204 47.1318C106.986 47.5649 105.695 47.7815 104.332 47.7815H97.3516ZM101.305 43.9915H103.65C104.65 43.9915 105.559 43.8651 106.377 43.6125C107.195 43.3417 107.895 42.9537 108.477 42.4484C109.076 41.943 109.531 41.3114 109.84 40.5534C110.167 39.7773 110.331 38.893 110.331 37.9003C110.331 36.6009 110.113 35.5451 109.676 34.7329C109.258 33.9027 108.731 33.2621 108.095 32.8109C107.477 32.3597 106.841 32.0529 106.186 31.8904C105.532 31.7099 104.977 31.6197 104.523 31.6197H101.305V43.9915Z" fill="#FF004D"/>
<path d="M118.388 27.8567H122.341V47.7815H118.388V27.8567Z" fill="#FF004D"/>
<path d="M142.572 46.1301C142.354 46.3106 141.945 46.5542 141.345 46.8611C140.764 47.1679 140.046 47.4386 139.191 47.6732C138.337 47.9078 137.392 48.0161 136.356 47.9981C134.774 47.962 133.356 47.6822 132.102 47.1588C130.866 46.6174 129.811 45.8865 128.939 44.966C128.085 44.0456 127.43 42.9898 126.976 41.7987C126.521 40.6075 126.294 39.3351 126.294 37.9815C126.294 36.4655 126.521 35.0759 126.976 33.8125C127.448 32.5492 128.112 31.4573 128.966 30.5368C129.839 29.6164 130.875 28.9035 132.075 28.3982C133.274 27.8928 134.601 27.6402 136.056 27.6402C137.401 27.6402 138.591 27.8207 139.628 28.1816C140.664 28.5426 141.509 28.9306 142.163 29.3457L140.609 33.0545C140.155 32.7116 139.546 32.3597 138.782 31.9987C138.037 31.6197 137.174 31.4302 136.192 31.4302C135.428 31.4302 134.692 31.5926 133.983 31.9175C133.293 32.2243 132.675 32.6665 132.129 33.244C131.602 33.8215 131.184 34.4983 130.875 35.2744C130.566 36.0324 130.411 36.8626 130.411 37.765C130.411 38.7215 130.548 39.5968 130.82 40.3909C131.111 41.185 131.52 41.8708 132.047 42.4484C132.575 43.0079 133.202 43.441 133.929 43.7478C134.674 44.0546 135.51 44.208 136.437 44.208C137.51 44.208 138.428 44.0366 139.191 43.6937C139.955 43.3508 140.537 42.9898 140.936 42.6108L142.572 46.1301Z" fill="#FF004D"/>
<path d="M145.17 27.8567H158.695V31.6468H153.814V47.7815H149.86V31.6468H145.17V27.8567Z" fill="#FF004D"/>
<path d="M160.591 37.8462C160.591 36.4746 160.854 35.1751 161.382 33.9479C161.909 32.7206 162.636 31.6378 163.563 30.6993C164.508 29.7427 165.599 28.9938 166.835 28.4523C168.071 27.9109 169.398 27.6402 170.816 27.6402C172.216 27.6402 173.534 27.9109 174.77 28.4523C176.006 28.9938 177.096 29.7427 178.042 30.6993C179.005 31.6378 179.75 32.7206 180.278 33.9479C180.823 35.1751 181.096 36.4746 181.096 37.8462C181.096 39.2539 180.823 40.5714 180.278 41.7987C179.75 43.0259 179.005 44.1088 178.042 45.0473C177.096 45.9677 176.006 46.6896 174.77 47.213C173.534 47.7364 172.216 47.9981 170.816 47.9981C169.398 47.9981 168.071 47.7364 166.835 47.213C165.599 46.6896 164.508 45.9677 163.563 45.0473C162.636 44.1088 161.909 43.0259 161.382 41.7987C160.854 40.5714 160.591 39.2539 160.591 37.8462ZM164.681 37.8462C164.681 38.7305 164.835 39.5607 165.144 40.3368C165.472 41.0948 165.917 41.7716 166.481 42.3672C167.062 42.9447 167.726 43.3959 168.471 43.7207C169.234 44.0456 170.062 44.208 170.952 44.208C171.807 44.208 172.597 44.0456 173.325 43.7207C174.07 43.3959 174.715 42.9447 175.261 42.3672C175.806 41.7716 176.233 41.0948 176.542 40.3368C176.851 39.5607 177.006 38.7305 177.006 37.8462C177.006 36.9438 176.842 36.1046 176.515 35.3285C176.206 34.5525 175.77 33.8757 175.206 33.2981C174.661 32.7026 174.015 32.2424 173.27 31.9175C172.525 31.5926 171.716 31.4302 170.843 31.4302C169.971 31.4302 169.162 31.5926 168.416 31.9175C167.671 32.2424 167.017 32.7026 166.453 33.2981C165.89 33.8757 165.453 34.5525 165.144 35.3285C164.835 36.1046 164.681 36.9438 164.681 37.8462Z" fill="#FF004D"/>
<path d="M191.118 27.8567C192.372 27.8567 193.49 28.0192 194.472 28.344C195.453 28.6508 196.271 29.102 196.926 29.6976C197.598 30.2751 198.107 30.979 198.453 31.8092C198.798 32.6214 198.971 33.5418 198.971 34.5705C198.971 35.3827 198.844 36.1948 198.589 37.007C198.353 37.8191 197.953 38.5591 197.389 39.2268C196.844 39.8946 196.117 40.436 195.208 40.8511C194.299 41.2482 193.172 41.4467 191.827 41.4467H188.991V47.7815H185.037V27.8567H191.118ZM191.8 37.6567C192.4 37.6567 192.899 37.5574 193.299 37.3589C193.699 37.1604 194.008 36.9077 194.226 36.6009C194.463 36.2941 194.626 35.9782 194.717 35.6534C194.826 35.3105 194.881 34.9946 194.881 34.7059C194.881 34.4893 194.844 34.2186 194.772 33.8937C194.717 33.5508 194.59 33.2079 194.39 32.865C194.19 32.5221 193.881 32.2333 193.463 31.9987C193.063 31.7641 192.518 31.6468 191.827 31.6468H188.991V37.6567H191.8ZM195.508 40.0931L200.471 47.7815H195.862L190.791 40.2014L195.508 40.0931Z" fill="#FF004D"/>
</svg>
