<svg width="1006" height="141" viewBox="0 0 1006 141" fill="none" xmlns="http://www.w3.org/2000/svg">
<mask id="path-1-outside-1_3_13" maskUnits="userSpaceOnUse" x="0" y="0.761719" width="1006" height="140" fill="black">
<rect fill="white" y="0.761719" width="1006" height="140"/>
<path d="M44.2244 8.11899C54.6233 8.11899 63.4223 9.87218 70.6216 13.3785C77.8208 16.7718 83.3059 21.6354 87.0769 27.9695C90.8479 34.1905 92.7335 41.599 92.7335 50.1952C92.7335 55.2851 91.9335 60.4315 90.3337 65.6345C88.8481 70.7244 86.3913 75.3618 82.9631 79.5468C79.6492 83.7318 75.1354 87.1251 69.4217 89.7266C63.8223 92.2149 56.9087 93.4591 48.6811 93.4591H30.8544V132.99H6V8.11899H44.2244ZM48.5097 69.5368C52.2807 69.5368 55.4232 68.9146 57.9372 67.6704C60.4512 66.3131 62.3939 64.6731 63.7652 62.7502C65.2507 60.7143 66.2792 58.6218 66.8506 56.4727C67.5362 54.3237 67.879 52.4574 67.879 50.8739C67.879 49.6297 67.6504 47.9896 67.1933 45.9537C66.8505 43.8046 66.0506 41.6556 64.7936 39.5065C63.5366 37.3575 61.594 35.5477 58.9657 34.0773C56.4517 32.6069 53.0234 31.8717 48.6811 31.8717H30.8544V69.5368H48.5097Z"/>
<path d="M153.197 8.11899C161.082 8.11899 168.11 9.13697 174.28 11.1729C180.451 13.0958 185.593 15.9235 189.707 19.656C193.935 23.2755 197.135 27.6867 199.306 32.8897C201.477 37.9796 202.563 43.7481 202.563 50.1952C202.563 55.2851 201.763 60.375 200.163 65.4648C198.678 70.5547 196.164 75.1922 192.621 79.3772C189.193 83.5622 184.622 86.9554 178.908 89.5569C173.195 92.0453 166.11 93.2894 157.654 93.2894H139.827V132.99H114.973V8.11899H153.197ZM157.482 69.5368C161.253 69.5368 164.396 68.9146 166.91 67.6704C169.424 66.4263 171.366 64.8428 172.738 62.9199C174.223 60.9971 175.252 59.0177 175.823 56.9817C176.509 54.8327 176.852 52.8533 176.852 51.0436C176.852 49.6863 176.623 47.9896 176.166 45.9537C175.823 43.8046 175.023 41.6556 173.766 39.5065C172.509 37.3575 170.567 35.5477 167.938 34.0773C165.424 32.6069 161.996 31.8717 157.654 31.8717H139.827V69.5368H157.482ZM180.794 84.8064L211.991 132.99H183.022L151.14 85.485L180.794 84.8064Z"/>
<path d="M232.482 8.11899H318.53V31.8717H257.337V58.5087H311.502V82.2614H257.337V109.238H320.93V132.99H232.482V8.11899Z"/>
<path d="M346.644 132.99V8.11899H384.354C397.038 8.11899 407.837 9.98529 416.75 13.7179C425.664 17.4504 432.806 22.4272 438.177 28.6481C443.662 34.8691 447.661 41.8252 450.175 49.5166C452.689 57.2079 453.946 64.9559 453.946 72.7603C453.946 82.0352 452.232 90.4052 448.804 97.8704C445.49 105.222 440.919 111.556 435.091 116.873C429.263 122.075 422.521 126.091 414.865 128.919C407.209 131.633 399.095 132.99 390.525 132.99H346.644ZM371.498 109.238H386.24C392.525 109.238 398.238 108.446 403.381 106.862C408.523 105.166 412.922 102.734 416.579 99.567C420.35 96.3999 423.207 92.4411 425.15 87.6906C427.207 82.8269 428.235 77.2847 428.235 71.0637C428.235 62.9199 426.864 56.3031 424.121 51.2132C421.493 46.0102 418.179 41.9949 414.179 39.1672C410.294 36.3395 406.294 34.4167 402.181 33.3987C398.067 32.2676 394.581 31.7021 391.725 31.7021H371.498V109.238Z"/>
<path d="M478.884 8.11899H503.738V132.99H478.884V8.11899Z"/>
<path d="M630.918 122.641C629.547 123.772 626.976 125.299 623.204 127.222C619.548 129.145 615.034 130.841 609.663 132.312C604.292 133.782 598.35 134.461 591.836 134.348C581.895 134.122 572.981 132.368 565.096 129.088C557.326 125.695 550.698 121.114 545.213 115.346C539.842 109.577 535.728 102.96 532.871 95.4951C530.015 88.0299 528.586 80.0558 528.586 71.5727C528.586 62.0716 530.015 53.3623 532.871 45.4447C535.843 37.5271 540.013 30.6841 545.384 24.9156C550.869 19.1471 557.383 14.6793 564.925 11.5122C572.467 8.34522 580.809 6.76172 589.951 6.76172C598.407 6.76172 605.892 7.89279 612.406 10.155C618.919 12.4171 624.233 14.8489 628.347 17.4504L618.576 40.6942C615.72 38.5451 611.891 36.3395 607.092 34.0773C602.407 31.702 596.979 30.5144 590.808 30.5144C586.008 30.5144 581.38 31.5324 576.924 33.5684C572.581 35.4912 568.696 38.2623 565.268 41.8818C561.954 45.5013 559.326 49.7428 557.383 54.6065C555.44 59.357 554.469 64.56 554.469 70.2154C554.469 76.2101 555.326 81.6959 557.04 86.6726C558.869 91.6494 561.44 95.9475 564.754 99.567C568.068 103.073 572.01 105.788 576.581 107.711C581.266 109.634 586.523 110.595 592.351 110.595C599.093 110.595 604.864 109.52 609.663 107.371C614.463 105.222 618.119 102.96 620.633 100.585L630.918 122.641Z"/>
<path d="M647.247 8.11899H732.267V31.8717H701.584V132.99H676.73V31.8717H647.247V8.11899Z"/>
<path d="M744.188 70.7244C744.188 62.1282 745.845 53.9844 749.159 46.293C752.473 38.6017 757.043 31.8152 762.871 25.9335C768.814 19.9388 775.67 15.2448 783.441 11.8516C791.211 8.45833 799.553 6.76172 808.466 6.76172C817.266 6.76172 825.55 8.45833 833.321 11.8516C841.091 15.2448 847.948 19.9388 853.89 25.9335C859.947 31.8152 864.632 38.6017 867.946 46.293C871.374 53.9844 873.088 62.1282 873.088 70.7244C873.088 79.5468 871.374 87.8037 867.946 95.4951C864.632 103.186 859.947 109.973 853.89 115.855C847.948 121.623 841.091 126.147 833.321 129.428C825.55 132.708 817.266 134.348 808.466 134.348C799.553 134.348 791.211 132.708 783.441 129.428C775.67 126.147 768.814 121.623 762.871 115.855C757.043 109.973 752.473 103.186 749.159 95.4951C745.845 87.8037 744.188 79.5468 744.188 70.7244ZM769.899 70.7244C769.899 76.2667 770.871 81.4697 772.813 86.3333C774.87 91.0839 777.67 95.3254 781.212 99.058C784.869 102.677 789.04 105.505 793.725 107.541C798.525 109.577 803.724 110.595 809.323 110.595C814.694 110.595 819.665 109.577 824.236 107.541C828.921 105.505 832.978 102.677 836.406 99.058C839.835 95.3254 842.52 91.0839 844.462 86.3333C846.405 81.4697 847.377 76.2667 847.377 70.7244C847.377 65.069 846.348 59.8094 844.291 54.9458C842.348 50.0821 839.606 45.8406 836.063 42.2211C832.635 38.4886 828.579 35.6043 823.893 33.5684C819.208 31.5324 814.123 30.5144 808.638 30.5144C803.153 30.5144 798.068 31.5324 793.382 33.5684C788.697 35.6043 784.583 38.4886 781.041 42.2211C777.498 45.8406 774.756 50.0821 772.813 54.9458C770.871 59.8094 769.899 65.069 769.899 70.7244Z"/>
<path d="M936.092 8.11899C943.977 8.11899 951.005 9.13697 957.175 11.1729C963.346 13.0958 968.488 15.9235 972.602 19.656C976.83 23.2755 980.03 27.6867 982.201 32.8897C984.372 37.9796 985.458 43.7481 985.458 50.1952C985.458 55.2851 984.658 60.375 983.058 65.4648C981.573 70.5547 979.059 75.1922 975.516 79.3772C972.088 83.5622 967.517 86.9554 961.803 89.5569C956.09 92.0453 949.005 93.2894 940.549 93.2894H922.722V132.99H897.867V8.11899H936.092ZM940.377 69.5368C944.148 69.5368 947.291 68.9146 949.805 67.6704C952.319 66.4263 954.261 64.8428 955.633 62.9199C957.118 60.9971 958.147 59.0177 958.718 56.9817C959.404 54.8327 959.746 52.8533 959.746 51.0436C959.746 49.6863 959.518 47.9896 959.061 45.9537C958.718 43.8046 957.918 41.6556 956.661 39.5065C955.404 37.3575 953.461 35.5477 950.833 34.0773C948.319 32.6069 944.891 31.8717 940.549 31.8717H922.722V69.5368H940.377ZM963.689 84.8064L994.886 132.99H965.917L934.035 85.485L963.689 84.8064Z"/>
</mask>
<path d="M44.2244 8.11899C54.6233 8.11899 63.4223 9.87218 70.6216 13.3785C77.8208 16.7718 83.3059 21.6354 87.0769 27.9695C90.8479 34.1905 92.7335 41.599 92.7335 50.1952C92.7335 55.2851 91.9335 60.4315 90.3337 65.6345C88.8481 70.7244 86.3913 75.3618 82.9631 79.5468C79.6492 83.7318 75.1354 87.1251 69.4217 89.7266C63.8223 92.2149 56.9087 93.4591 48.6811 93.4591H30.8544V132.99H6V8.11899H44.2244ZM48.5097 69.5368C52.2807 69.5368 55.4232 68.9146 57.9372 67.6704C60.4512 66.3131 62.3939 64.6731 63.7652 62.7502C65.2507 60.7143 66.2792 58.6218 66.8506 56.4727C67.5362 54.3237 67.879 52.4574 67.879 50.8739C67.879 49.6297 67.6504 47.9896 67.1933 45.9537C66.8505 43.8046 66.0506 41.6556 64.7936 39.5065C63.5366 37.3575 61.594 35.5477 58.9657 34.0773C56.4517 32.6069 53.0234 31.8717 48.6811 31.8717H30.8544V69.5368H48.5097Z" fill="#FF004D"/>
<path d="M153.197 8.11899C161.082 8.11899 168.11 9.13697 174.28 11.1729C180.451 13.0958 185.593 15.9235 189.707 19.656C193.935 23.2755 197.135 27.6867 199.306 32.8897C201.477 37.9796 202.563 43.7481 202.563 50.1952C202.563 55.2851 201.763 60.375 200.163 65.4648C198.678 70.5547 196.164 75.1922 192.621 79.3772C189.193 83.5622 184.622 86.9554 178.908 89.5569C173.195 92.0453 166.11 93.2894 157.654 93.2894H139.827V132.99H114.973V8.11899H153.197ZM157.482 69.5368C161.253 69.5368 164.396 68.9146 166.91 67.6704C169.424 66.4263 171.366 64.8428 172.738 62.9199C174.223 60.9971 175.252 59.0177 175.823 56.9817C176.509 54.8327 176.852 52.8533 176.852 51.0436C176.852 49.6863 176.623 47.9896 176.166 45.9537C175.823 43.8046 175.023 41.6556 173.766 39.5065C172.509 37.3575 170.567 35.5477 167.938 34.0773C165.424 32.6069 161.996 31.8717 157.654 31.8717H139.827V69.5368H157.482ZM180.794 84.8064L211.991 132.99H183.022L151.14 85.485L180.794 84.8064Z" fill="#FF004D"/>
<path d="M232.482 8.11899H318.53V31.8717H257.337V58.5087H311.502V82.2614H257.337V109.238H320.93V132.99H232.482V8.11899Z" fill="#FF004D"/>
<path d="M346.644 132.99V8.11899H384.354C397.038 8.11899 407.837 9.98529 416.75 13.7179C425.664 17.4504 432.806 22.4272 438.177 28.6481C443.662 34.8691 447.661 41.8252 450.175 49.5166C452.689 57.2079 453.946 64.9559 453.946 72.7603C453.946 82.0352 452.232 90.4052 448.804 97.8704C445.49 105.222 440.919 111.556 435.091 116.873C429.263 122.075 422.521 126.091 414.865 128.919C407.209 131.633 399.095 132.99 390.525 132.99H346.644ZM371.498 109.238H386.24C392.525 109.238 398.238 108.446 403.381 106.862C408.523 105.166 412.922 102.734 416.579 99.567C420.35 96.3999 423.207 92.4411 425.15 87.6906C427.207 82.8269 428.235 77.2847 428.235 71.0637C428.235 62.9199 426.864 56.3031 424.121 51.2132C421.493 46.0102 418.179 41.9949 414.179 39.1672C410.294 36.3395 406.294 34.4167 402.181 33.3987C398.067 32.2676 394.581 31.7021 391.725 31.7021H371.498V109.238Z" fill="#FF004D"/>
<path d="M478.884 8.11899H503.738V132.99H478.884V8.11899Z" fill="#FF004D"/>
<path d="M630.918 122.641C629.547 123.772 626.976 125.299 623.204 127.222C619.548 129.145 615.034 130.841 609.663 132.312C604.292 133.782 598.35 134.461 591.836 134.348C581.895 134.122 572.981 132.368 565.096 129.088C557.326 125.695 550.698 121.114 545.213 115.346C539.842 109.577 535.728 102.96 532.871 95.4951C530.015 88.0299 528.586 80.0558 528.586 71.5727C528.586 62.0716 530.015 53.3623 532.871 45.4447C535.843 37.5271 540.013 30.6841 545.384 24.9156C550.869 19.1471 557.383 14.6793 564.925 11.5122C572.467 8.34522 580.809 6.76172 589.951 6.76172C598.407 6.76172 605.892 7.89279 612.406 10.155C618.919 12.4171 624.233 14.8489 628.347 17.4504L618.576 40.6942C615.72 38.5451 611.891 36.3395 607.092 34.0773C602.407 31.702 596.979 30.5144 590.808 30.5144C586.008 30.5144 581.38 31.5324 576.924 33.5684C572.581 35.4912 568.696 38.2623 565.268 41.8818C561.954 45.5013 559.326 49.7428 557.383 54.6065C555.44 59.357 554.469 64.56 554.469 70.2154C554.469 76.2101 555.326 81.6959 557.04 86.6726C558.869 91.6494 561.44 95.9475 564.754 99.567C568.068 103.073 572.01 105.788 576.581 107.711C581.266 109.634 586.523 110.595 592.351 110.595C599.093 110.595 604.864 109.52 609.663 107.371C614.463 105.222 618.119 102.96 620.633 100.585L630.918 122.641Z" fill="#FF004D"/>
<path d="M647.247 8.11899H732.267V31.8717H701.584V132.99H676.73V31.8717H647.247V8.11899Z" fill="#FF004D"/>
<path d="M744.188 70.7244C744.188 62.1282 745.845 53.9844 749.159 46.293C752.473 38.6017 757.043 31.8152 762.871 25.9335C768.814 19.9388 775.67 15.2448 783.441 11.8516C791.211 8.45833 799.553 6.76172 808.466 6.76172C817.266 6.76172 825.55 8.45833 833.321 11.8516C841.091 15.2448 847.948 19.9388 853.89 25.9335C859.947 31.8152 864.632 38.6017 867.946 46.293C871.374 53.9844 873.088 62.1282 873.088 70.7244C873.088 79.5468 871.374 87.8037 867.946 95.4951C864.632 103.186 859.947 109.973 853.89 115.855C847.948 121.623 841.091 126.147 833.321 129.428C825.55 132.708 817.266 134.348 808.466 134.348C799.553 134.348 791.211 132.708 783.441 129.428C775.67 126.147 768.814 121.623 762.871 115.855C757.043 109.973 752.473 103.186 749.159 95.4951C745.845 87.8037 744.188 79.5468 744.188 70.7244ZM769.899 70.7244C769.899 76.2667 770.871 81.4697 772.813 86.3333C774.87 91.0839 777.67 95.3254 781.212 99.058C784.869 102.677 789.04 105.505 793.725 107.541C798.525 109.577 803.724 110.595 809.323 110.595C814.694 110.595 819.665 109.577 824.236 107.541C828.921 105.505 832.978 102.677 836.406 99.058C839.835 95.3254 842.52 91.0839 844.462 86.3333C846.405 81.4697 847.377 76.2667 847.377 70.7244C847.377 65.069 846.348 59.8094 844.291 54.9458C842.348 50.0821 839.606 45.8406 836.063 42.2211C832.635 38.4886 828.579 35.6043 823.893 33.5684C819.208 31.5324 814.123 30.5144 808.638 30.5144C803.153 30.5144 798.068 31.5324 793.382 33.5684C788.697 35.6043 784.583 38.4886 781.041 42.2211C777.498 45.8406 774.756 50.0821 772.813 54.9458C770.871 59.8094 769.899 65.069 769.899 70.7244Z" fill="#FF004D"/>
<path d="M936.092 8.11899C943.977 8.11899 951.005 9.13697 957.175 11.1729C963.346 13.0958 968.488 15.9235 972.602 19.656C976.83 23.2755 980.03 27.6867 982.201 32.8897C984.372 37.9796 985.458 43.7481 985.458 50.1952C985.458 55.2851 984.658 60.375 983.058 65.4648C981.573 70.5547 979.059 75.1922 975.516 79.3772C972.088 83.5622 967.517 86.9554 961.803 89.5569C956.09 92.0453 949.005 93.2894 940.549 93.2894H922.722V132.99H897.867V8.11899H936.092ZM940.377 69.5368C944.148 69.5368 947.291 68.9146 949.805 67.6704C952.319 66.4263 954.261 64.8428 955.633 62.9199C957.118 60.9971 958.147 59.0177 958.718 56.9817C959.404 54.8327 959.746 52.8533 959.746 51.0436C959.746 49.6863 959.518 47.9896 959.061 45.9537C958.718 43.8046 957.918 41.6556 956.661 39.5065C955.404 37.3575 953.461 35.5477 950.833 34.0773C948.319 32.6069 944.891 31.8717 940.549 31.8717H922.722V69.5368H940.377ZM963.689 84.8064L994.886 132.99H965.917L934.035 85.485L963.689 84.8064Z" fill="#FF004D"/>
<path d="M44.2244 8.11899C54.6233 8.11899 63.4223 9.87218 70.6216 13.3785C77.8208 16.7718 83.3059 21.6354 87.0769 27.9695C90.8479 34.1905 92.7335 41.599 92.7335 50.1952C92.7335 55.2851 91.9335 60.4315 90.3337 65.6345C88.8481 70.7244 86.3913 75.3618 82.9631 79.5468C79.6492 83.7318 75.1354 87.1251 69.4217 89.7266C63.8223 92.2149 56.9087 93.4591 48.6811 93.4591H30.8544V132.99H6V8.11899H44.2244ZM48.5097 69.5368C52.2807 69.5368 55.4232 68.9146 57.9372 67.6704C60.4512 66.3131 62.3939 64.6731 63.7652 62.7502C65.2507 60.7143 66.2792 58.6218 66.8506 56.4727C67.5362 54.3237 67.879 52.4574 67.879 50.8739C67.879 49.6297 67.6504 47.9896 67.1933 45.9537C66.8505 43.8046 66.0506 41.6556 64.7936 39.5065C63.5366 37.3575 61.594 35.5477 58.9657 34.0773C56.4517 32.6069 53.0234 31.8717 48.6811 31.8717H30.8544V69.5368H48.5097Z" stroke="#FF004D" stroke-width="12" mask="url(#path-1-outside-1_3_13)"/>
<path d="M153.197 8.11899C161.082 8.11899 168.11 9.13697 174.28 11.1729C180.451 13.0958 185.593 15.9235 189.707 19.656C193.935 23.2755 197.135 27.6867 199.306 32.8897C201.477 37.9796 202.563 43.7481 202.563 50.1952C202.563 55.2851 201.763 60.375 200.163 65.4648C198.678 70.5547 196.164 75.1922 192.621 79.3772C189.193 83.5622 184.622 86.9554 178.908 89.5569C173.195 92.0453 166.11 93.2894 157.654 93.2894H139.827V132.99H114.973V8.11899H153.197ZM157.482 69.5368C161.253 69.5368 164.396 68.9146 166.91 67.6704C169.424 66.4263 171.366 64.8428 172.738 62.9199C174.223 60.9971 175.252 59.0177 175.823 56.9817C176.509 54.8327 176.852 52.8533 176.852 51.0436C176.852 49.6863 176.623 47.9896 176.166 45.9537C175.823 43.8046 175.023 41.6556 173.766 39.5065C172.509 37.3575 170.567 35.5477 167.938 34.0773C165.424 32.6069 161.996 31.8717 157.654 31.8717H139.827V69.5368H157.482ZM180.794 84.8064L211.991 132.99H183.022L151.14 85.485L180.794 84.8064Z" stroke="#FF004D" stroke-width="12" mask="url(#path-1-outside-1_3_13)"/>
<path d="M232.482 8.11899H318.53V31.8717H257.337V58.5087H311.502V82.2614H257.337V109.238H320.93V132.99H232.482V8.11899Z" stroke="#FF004D" stroke-width="12" mask="url(#path-1-outside-1_3_13)"/>
<path d="M346.644 132.99V8.11899H384.354C397.038 8.11899 407.837 9.98529 416.75 13.7179C425.664 17.4504 432.806 22.4272 438.177 28.6481C443.662 34.8691 447.661 41.8252 450.175 49.5166C452.689 57.2079 453.946 64.9559 453.946 72.7603C453.946 82.0352 452.232 90.4052 448.804 97.8704C445.49 105.222 440.919 111.556 435.091 116.873C429.263 122.075 422.521 126.091 414.865 128.919C407.209 131.633 399.095 132.99 390.525 132.99H346.644ZM371.498 109.238H386.24C392.525 109.238 398.238 108.446 403.381 106.862C408.523 105.166 412.922 102.734 416.579 99.567C420.35 96.3999 423.207 92.4411 425.15 87.6906C427.207 82.8269 428.235 77.2847 428.235 71.0637C428.235 62.9199 426.864 56.3031 424.121 51.2132C421.493 46.0102 418.179 41.9949 414.179 39.1672C410.294 36.3395 406.294 34.4167 402.181 33.3987C398.067 32.2676 394.581 31.7021 391.725 31.7021H371.498V109.238Z" stroke="#FF004D" stroke-width="12" mask="url(#path-1-outside-1_3_13)"/>
<path d="M478.884 8.11899H503.738V132.99H478.884V8.11899Z" stroke="#FF004D" stroke-width="12" mask="url(#path-1-outside-1_3_13)"/>
<path d="M630.918 122.641C629.547 123.772 626.976 125.299 623.204 127.222C619.548 129.145 615.034 130.841 609.663 132.312C604.292 133.782 598.35 134.461 591.836 134.348C581.895 134.122 572.981 132.368 565.096 129.088C557.326 125.695 550.698 121.114 545.213 115.346C539.842 109.577 535.728 102.96 532.871 95.4951C530.015 88.0299 528.586 80.0558 528.586 71.5727C528.586 62.0716 530.015 53.3623 532.871 45.4447C535.843 37.5271 540.013 30.6841 545.384 24.9156C550.869 19.1471 557.383 14.6793 564.925 11.5122C572.467 8.34522 580.809 6.76172 589.951 6.76172C598.407 6.76172 605.892 7.89279 612.406 10.155C618.919 12.4171 624.233 14.8489 628.347 17.4504L618.576 40.6942C615.72 38.5451 611.891 36.3395 607.092 34.0773C602.407 31.702 596.979 30.5144 590.808 30.5144C586.008 30.5144 581.38 31.5324 576.924 33.5684C572.581 35.4912 568.696 38.2623 565.268 41.8818C561.954 45.5013 559.326 49.7428 557.383 54.6065C555.44 59.357 554.469 64.56 554.469 70.2154C554.469 76.2101 555.326 81.6959 557.04 86.6726C558.869 91.6494 561.44 95.9475 564.754 99.567C568.068 103.073 572.01 105.788 576.581 107.711C581.266 109.634 586.523 110.595 592.351 110.595C599.093 110.595 604.864 109.52 609.663 107.371C614.463 105.222 618.119 102.96 620.633 100.585L630.918 122.641Z" stroke="#FF004D" stroke-width="12" mask="url(#path-1-outside-1_3_13)"/>
<path d="M647.247 8.11899H732.267V31.8717H701.584V132.99H676.73V31.8717H647.247V8.11899Z" stroke="#FF004D" stroke-width="12" mask="url(#path-1-outside-1_3_13)"/>
<path d="M744.188 70.7244C744.188 62.1282 745.845 53.9844 749.159 46.293C752.473 38.6017 757.043 31.8152 762.871 25.9335C768.814 19.9388 775.67 15.2448 783.441 11.8516C791.211 8.45833 799.553 6.76172 808.466 6.76172C817.266 6.76172 825.55 8.45833 833.321 11.8516C841.091 15.2448 847.948 19.9388 853.89 25.9335C859.947 31.8152 864.632 38.6017 867.946 46.293C871.374 53.9844 873.088 62.1282 873.088 70.7244C873.088 79.5468 871.374 87.8037 867.946 95.4951C864.632 103.186 859.947 109.973 853.89 115.855C847.948 121.623 841.091 126.147 833.321 129.428C825.55 132.708 817.266 134.348 808.466 134.348C799.553 134.348 791.211 132.708 783.441 129.428C775.67 126.147 768.814 121.623 762.871 115.855C757.043 109.973 752.473 103.186 749.159 95.4951C745.845 87.8037 744.188 79.5468 744.188 70.7244ZM769.899 70.7244C769.899 76.2667 770.871 81.4697 772.813 86.3333C774.87 91.0839 777.67 95.3254 781.212 99.058C784.869 102.677 789.04 105.505 793.725 107.541C798.525 109.577 803.724 110.595 809.323 110.595C814.694 110.595 819.665 109.577 824.236 107.541C828.921 105.505 832.978 102.677 836.406 99.058C839.835 95.3254 842.52 91.0839 844.462 86.3333C846.405 81.4697 847.377 76.2667 847.377 70.7244C847.377 65.069 846.348 59.8094 844.291 54.9458C842.348 50.0821 839.606 45.8406 836.063 42.2211C832.635 38.4886 828.579 35.6043 823.893 33.5684C819.208 31.5324 814.123 30.5144 808.638 30.5144C803.153 30.5144 798.068 31.5324 793.382 33.5684C788.697 35.6043 784.583 38.4886 781.041 42.2211C777.498 45.8406 774.756 50.0821 772.813 54.9458C770.871 59.8094 769.899 65.069 769.899 70.7244Z" stroke="#FF004D" stroke-width="12" mask="url(#path-1-outside-1_3_13)"/>
<path d="M936.092 8.11899C943.977 8.11899 951.005 9.13697 957.175 11.1729C963.346 13.0958 968.488 15.9235 972.602 19.656C976.83 23.2755 980.03 27.6867 982.201 32.8897C984.372 37.9796 985.458 43.7481 985.458 50.1952C985.458 55.2851 984.658 60.375 983.058 65.4648C981.573 70.5547 979.059 75.1922 975.516 79.3772C972.088 83.5622 967.517 86.9554 961.803 89.5569C956.09 92.0453 949.005 93.2894 940.549 93.2894H922.722V132.99H897.867V8.11899H936.092ZM940.377 69.5368C944.148 69.5368 947.291 68.9146 949.805 67.6704C952.319 66.4263 954.261 64.8428 955.633 62.9199C957.118 60.9971 958.147 59.0177 958.718 56.9817C959.404 54.8327 959.746 52.8533 959.746 51.0436C959.746 49.6863 959.518 47.9896 959.061 45.9537C958.718 43.8046 957.918 41.6556 956.661 39.5065C955.404 37.3575 953.461 35.5477 950.833 34.0773C948.319 32.6069 944.891 31.8717 940.549 31.8717H922.722V69.5368H940.377ZM963.689 84.8064L994.886 132.99H965.917L934.035 85.485L963.689 84.8064Z" stroke="#FF004D" stroke-width="12" mask="url(#path-1-outside-1_3_13)"/>
</svg>
