<svg width="849" height="199" viewBox="0 0 849 199" fill="none" xmlns="http://www.w3.org/2000/svg">
<mask id="path-1-outside-1_3_14" maskUnits="userSpaceOnUse" x="0.560745" y="0.913574" width="848" height="199" fill="black">
<rect fill="white" x="0.560745" y="0.913574" width="848" height="199"/>
<path d="M23.5607 155.417L84.3559 15.9136H85.8208L146.616 155.417H115.852L77.0312 57.3086L96.2585 44.1789L49.7466 155.417H23.5607ZM65.1285 106.91H105.598L114.937 129.157H56.8882L65.1285 106.91Z"/>
<path d="M166.381 21.2019L205.752 117.851L190.37 114.751L226.078 21.2019H257.574L196.046 161.617L134.519 21.2019H166.381Z"/>
<path d="M280.89 21.2019H307.442V155.417H280.89V21.2019Z"/>
<path d="M327.029 155.417L387.824 15.9136H389.289L450.084 155.417H419.32L380.499 57.3086L399.726 44.1789L353.214 155.417H327.029ZM368.596 106.91H409.065L418.404 129.157H360.356L368.596 106.91Z"/>
<path d="M449.666 21.2019H540.492V46.7319H507.714V155.417H481.162V46.7319H449.666V21.2019Z"/>
<path d="M553.228 88.4917C553.228 79.2523 554.998 70.4991 558.538 62.2323C562.078 53.9654 566.962 46.6711 573.188 40.3494C579.536 33.9061 586.86 28.8609 595.162 25.2138C603.463 21.5666 612.375 19.7431 621.897 19.7431C631.297 19.7431 640.148 21.5666 648.449 25.2138C656.75 28.8609 664.075 33.9061 670.423 40.3494C676.893 46.6711 681.899 53.9654 685.439 62.2323C689.101 70.4991 690.932 79.2523 690.932 88.4917C690.932 97.9742 689.101 106.849 685.439 115.116C681.899 123.383 676.893 130.677 670.423 136.999C664.075 143.199 656.75 148.062 648.449 151.587C640.148 155.113 631.297 156.876 621.897 156.876C612.375 156.876 603.463 155.113 595.162 151.587C586.86 148.062 579.536 143.199 573.188 136.999C566.962 130.677 562.078 123.383 558.538 115.116C554.998 106.849 553.228 97.9742 553.228 88.4917ZM580.695 88.4917C580.695 94.4487 581.733 100.041 583.808 105.269C586.006 110.375 588.997 114.933 592.781 118.945C596.688 122.836 601.144 125.875 606.149 128.063C611.276 130.251 616.831 131.346 622.813 131.346C628.55 131.346 633.861 130.251 638.744 128.063C643.749 125.875 648.083 122.836 651.745 118.945C655.407 114.933 658.276 110.375 660.352 105.269C662.427 100.041 663.465 94.4487 663.465 88.4917C663.465 82.4131 662.366 76.76 660.169 71.5325C658.093 66.3049 655.163 61.746 651.379 57.8557C647.717 53.8438 643.383 50.7438 638.378 48.5555C633.372 46.3672 627.94 45.2731 622.08 45.2731C616.22 45.2731 610.788 46.3672 605.783 48.5555C600.777 50.7438 596.383 53.8438 592.598 57.8557C588.814 61.746 585.884 66.3049 583.808 71.5325C581.733 76.76 580.695 82.4131 580.695 88.4917Z"/>
<path d="M758.24 21.2019C766.663 21.2019 774.171 22.2961 780.763 24.4844C787.355 26.5511 792.849 29.5904 797.244 33.6022C801.761 37.4925 805.179 42.2338 807.498 47.8261C809.818 53.2968 810.978 59.4969 810.978 66.4265C810.978 71.8972 810.123 77.3679 808.414 82.8386C806.827 88.3093 804.141 93.2937 800.357 97.7919C796.694 102.29 791.811 105.937 785.707 108.733C779.603 111.408 772.035 112.745 763.001 112.745H743.956V155.417H717.404V21.2019H758.24ZM762.818 87.2152C766.846 87.2152 770.203 86.5465 772.889 85.2093C775.575 83.872 777.65 82.17 779.115 80.1033C780.702 78.0365 781.801 75.909 782.411 73.7208C783.144 71.4109 783.51 69.2834 783.51 67.3383C783.51 65.8794 783.266 64.0558 782.777 61.8676C782.411 59.5577 781.557 57.2478 780.214 54.938C778.871 52.6281 776.796 50.683 773.988 49.1026C771.302 47.5221 767.64 46.7319 763.001 46.7319H743.956V87.2152H762.818ZM787.722 103.627L821.049 155.417H790.102L756.042 104.357L787.722 103.627Z"/>
</mask>
<path d="M23.5607 155.417L84.3559 15.9136H85.8208L146.616 155.417H115.852L77.0312 57.3086L96.2585 44.1789L49.7466 155.417H23.5607ZM65.1285 106.91H105.598L114.937 129.157H56.8882L65.1285 106.91Z" fill="white"/>
<path d="M166.381 21.2019L205.752 117.851L190.37 114.751L226.078 21.2019H257.574L196.046 161.617L134.519 21.2019H166.381Z" fill="white"/>
<path d="M280.89 21.2019H307.442V155.417H280.89V21.2019Z" fill="white"/>
<path d="M327.029 155.417L387.824 15.9136H389.289L450.084 155.417H419.32L380.499 57.3086L399.726 44.1789L353.214 155.417H327.029ZM368.596 106.91H409.065L418.404 129.157H360.356L368.596 106.91Z" fill="white"/>
<path d="M449.666 21.2019H540.492V46.7319H507.714V155.417H481.162V46.7319H449.666V21.2019Z" fill="white"/>
<path d="M553.228 88.4917C553.228 79.2523 554.998 70.4991 558.538 62.2323C562.078 53.9654 566.962 46.6711 573.188 40.3494C579.536 33.9061 586.86 28.8609 595.162 25.2138C603.463 21.5666 612.375 19.7431 621.897 19.7431C631.297 19.7431 640.148 21.5666 648.449 25.2138C656.75 28.8609 664.075 33.9061 670.423 40.3494C676.893 46.6711 681.899 53.9654 685.439 62.2323C689.101 70.4991 690.932 79.2523 690.932 88.4917C690.932 97.9742 689.101 106.849 685.439 115.116C681.899 123.383 676.893 130.677 670.423 136.999C664.075 143.199 656.75 148.062 648.449 151.587C640.148 155.113 631.297 156.876 621.897 156.876C612.375 156.876 603.463 155.113 595.162 151.587C586.86 148.062 579.536 143.199 573.188 136.999C566.962 130.677 562.078 123.383 558.538 115.116C554.998 106.849 553.228 97.9742 553.228 88.4917ZM580.695 88.4917C580.695 94.4487 581.733 100.041 583.808 105.269C586.006 110.375 588.997 114.933 592.781 118.945C596.688 122.836 601.144 125.875 606.149 128.063C611.276 130.251 616.831 131.346 622.813 131.346C628.55 131.346 633.861 130.251 638.744 128.063C643.749 125.875 648.083 122.836 651.745 118.945C655.407 114.933 658.276 110.375 660.352 105.269C662.427 100.041 663.465 94.4487 663.465 88.4917C663.465 82.4131 662.366 76.76 660.169 71.5325C658.093 66.3049 655.163 61.746 651.379 57.8557C647.717 53.8438 643.383 50.7438 638.378 48.5555C633.372 46.3672 627.94 45.2731 622.08 45.2731C616.22 45.2731 610.788 46.3672 605.783 48.5555C600.777 50.7438 596.383 53.8438 592.598 57.8557C588.814 61.746 585.884 66.3049 583.808 71.5325C581.733 76.76 580.695 82.4131 580.695 88.4917Z" fill="white"/>
<path d="M758.24 21.2019C766.663 21.2019 774.171 22.2961 780.763 24.4844C787.355 26.5511 792.849 29.5904 797.244 33.6022C801.761 37.4925 805.179 42.2338 807.498 47.8261C809.818 53.2968 810.978 59.4969 810.978 66.4265C810.978 71.8972 810.123 77.3679 808.414 82.8386C806.827 88.3093 804.141 93.2937 800.357 97.7919C796.694 102.29 791.811 105.937 785.707 108.733C779.603 111.408 772.035 112.745 763.001 112.745H743.956V155.417H717.404V21.2019H758.24ZM762.818 87.2152C766.846 87.2152 770.203 86.5465 772.889 85.2093C775.575 83.872 777.65 82.17 779.115 80.1033C780.702 78.0365 781.801 75.909 782.411 73.7208C783.144 71.4109 783.51 69.2834 783.51 67.3383C783.51 65.8794 783.266 64.0558 782.777 61.8676C782.411 59.5577 781.557 57.2478 780.214 54.938C778.871 52.6281 776.796 50.683 773.988 49.1026C771.302 47.5221 767.64 46.7319 763.001 46.7319H743.956V87.2152H762.818ZM787.722 103.627L821.049 155.417H790.102L756.042 104.357L787.722 103.627Z" fill="white"/>
<path d="M23.5607 155.417L84.3559 15.9136H85.8208L146.616 155.417H115.852L77.0312 57.3086L96.2585 44.1789L49.7466 155.417H23.5607ZM65.1285 106.91H105.598L114.937 129.157H56.8882L65.1285 106.91Z" stroke="white" stroke-width="30" mask="url(#path-1-outside-1_3_14)"/>
<path d="M166.381 21.2019L205.752 117.851L190.37 114.751L226.078 21.2019H257.574L196.046 161.617L134.519 21.2019H166.381Z" stroke="white" stroke-width="30" mask="url(#path-1-outside-1_3_14)"/>
<path d="M280.89 21.2019H307.442V155.417H280.89V21.2019Z" stroke="white" stroke-width="30" mask="url(#path-1-outside-1_3_14)"/>
<path d="M327.029 155.417L387.824 15.9136H389.289L450.084 155.417H419.32L380.499 57.3086L399.726 44.1789L353.214 155.417H327.029ZM368.596 106.91H409.065L418.404 129.157H360.356L368.596 106.91Z" stroke="white" stroke-width="30" mask="url(#path-1-outside-1_3_14)"/>
<path d="M449.666 21.2019H540.492V46.7319H507.714V155.417H481.162V46.7319H449.666V21.2019Z" stroke="white" stroke-width="30" mask="url(#path-1-outside-1_3_14)"/>
<path d="M553.228 88.4917C553.228 79.2523 554.998 70.4991 558.538 62.2323C562.078 53.9654 566.962 46.6711 573.188 40.3494C579.536 33.9061 586.86 28.8609 595.162 25.2138C603.463 21.5666 612.375 19.7431 621.897 19.7431C631.297 19.7431 640.148 21.5666 648.449 25.2138C656.75 28.8609 664.075 33.9061 670.423 40.3494C676.893 46.6711 681.899 53.9654 685.439 62.2323C689.101 70.4991 690.932 79.2523 690.932 88.4917C690.932 97.9742 689.101 106.849 685.439 115.116C681.899 123.383 676.893 130.677 670.423 136.999C664.075 143.199 656.75 148.062 648.449 151.587C640.148 155.113 631.297 156.876 621.897 156.876C612.375 156.876 603.463 155.113 595.162 151.587C586.86 148.062 579.536 143.199 573.188 136.999C566.962 130.677 562.078 123.383 558.538 115.116C554.998 106.849 553.228 97.9742 553.228 88.4917ZM580.695 88.4917C580.695 94.4487 581.733 100.041 583.808 105.269C586.006 110.375 588.997 114.933 592.781 118.945C596.688 122.836 601.144 125.875 606.149 128.063C611.276 130.251 616.831 131.346 622.813 131.346C628.55 131.346 633.861 130.251 638.744 128.063C643.749 125.875 648.083 122.836 651.745 118.945C655.407 114.933 658.276 110.375 660.352 105.269C662.427 100.041 663.465 94.4487 663.465 88.4917C663.465 82.4131 662.366 76.76 660.169 71.5325C658.093 66.3049 655.163 61.746 651.379 57.8557C647.717 53.8438 643.383 50.7438 638.378 48.5555C633.372 46.3672 627.94 45.2731 622.08 45.2731C616.22 45.2731 610.788 46.3672 605.783 48.5555C600.777 50.7438 596.383 53.8438 592.598 57.8557C588.814 61.746 585.884 66.3049 583.808 71.5325C581.733 76.76 580.695 82.4131 580.695 88.4917Z" stroke="white" stroke-width="30" mask="url(#path-1-outside-1_3_14)"/>
<path d="M758.24 21.2019C766.663 21.2019 774.171 22.2961 780.763 24.4844C787.355 26.5511 792.849 29.5904 797.244 33.6022C801.761 37.4925 805.179 42.2338 807.498 47.8261C809.818 53.2968 810.978 59.4969 810.978 66.4265C810.978 71.8972 810.123 77.3679 808.414 82.8386C806.827 88.3093 804.141 93.2937 800.357 97.7919C796.694 102.29 791.811 105.937 785.707 108.733C779.603 111.408 772.035 112.745 763.001 112.745H743.956V155.417H717.404V21.2019H758.24ZM762.818 87.2152C766.846 87.2152 770.203 86.5465 772.889 85.2093C775.575 83.872 777.65 82.17 779.115 80.1033C780.702 78.0365 781.801 75.909 782.411 73.7208C783.144 71.4109 783.51 69.2834 783.51 67.3383C783.51 65.8794 783.266 64.0558 782.777 61.8676C782.411 59.5577 781.557 57.2478 780.214 54.938C778.871 52.6281 776.796 50.683 773.988 49.1026C771.302 47.5221 767.64 46.7319 763.001 46.7319H743.956V87.2152H762.818ZM787.722 103.627L821.049 155.417H790.102L756.042 104.357L787.722 103.627Z" stroke="white" stroke-width="30" mask="url(#path-1-outside-1_3_14)"/>
</svg>
